<mxfile host="app.diagrams.net" agent="Mozilla/5.0 (Macintosh; Intel Mac OS X 10_15_7) AppleWebKit/605.1.15 (KHTML, like Gecko) Version/18.3 Safari/605.1.15" version="26.2.14">
  <diagram id="R2lEEEUBdFMjLlhIrx00" name="Page-1">
    <mxGraphModel dx="1796" dy="1752" grid="1" gridSize="10" guides="1" tooltips="1" connect="1" arrows="1" fold="1" page="1" pageScale="1" pageWidth="850" pageHeight="1100" math="0" shadow="0" extFonts="Permanent Marker^https://fonts.googleapis.com/css?family=Permanent+Marker">
      <root>
        <mxCell id="0" />
        <mxCell id="1" parent="0" />
        <mxCell id="UmrRzRvC02uneNPQCRzM-6" style="edgeStyle=orthogonalEdgeStyle;rounded=0;orthogonalLoop=1;jettySize=auto;html=1;exitX=0.5;exitY=1;exitDx=0;exitDy=0;entryX=0.5;entryY=0;entryDx=0;entryDy=0;endArrow=none;startFill=0;" edge="1" parent="1" source="UmrRzRvC02uneNPQCRzM-1" target="UmrRzRvC02uneNPQCRzM-2">
          <mxGeometry relative="1" as="geometry">
            <Array as="points">
              <mxPoint x="425" y="120" />
              <mxPoint x="650" y="120" />
            </Array>
          </mxGeometry>
        </mxCell>
        <mxCell id="UmrRzRvC02uneNPQCRzM-10" value="" style="edgeStyle=orthogonalEdgeStyle;rounded=0;orthogonalLoop=1;jettySize=auto;html=1;endArrow=none;startFill=0;" edge="1" parent="1" source="UmrRzRvC02uneNPQCRzM-2" target="UmrRzRvC02uneNPQCRzM-9">
          <mxGeometry relative="1" as="geometry" />
        </mxCell>
        <mxCell id="UmrRzRvC02uneNPQCRzM-64" value="" style="edgeStyle=orthogonalEdgeStyle;rounded=0;orthogonalLoop=1;jettySize=auto;html=1;endArrow=none;startFill=0;" edge="1" parent="1" source="UmrRzRvC02uneNPQCRzM-2" target="UmrRzRvC02uneNPQCRzM-63">
          <mxGeometry relative="1" as="geometry" />
        </mxCell>
        <mxCell id="UmrRzRvC02uneNPQCRzM-2" value="Admin" style="rounded=1;arcSize=10;whiteSpace=wrap;html=1;align=center;" vertex="1" parent="1">
          <mxGeometry x="600" y="150" width="100" height="40" as="geometry" />
        </mxCell>
        <mxCell id="UmrRzRvC02uneNPQCRzM-14" value="" style="edgeStyle=orthogonalEdgeStyle;rounded=0;orthogonalLoop=1;jettySize=auto;html=1;endArrow=none;startFill=0;" edge="1" parent="1" source="UmrRzRvC02uneNPQCRzM-3" target="UmrRzRvC02uneNPQCRzM-13">
          <mxGeometry relative="1" as="geometry" />
        </mxCell>
        <mxCell id="UmrRzRvC02uneNPQCRzM-22" value="" style="edgeStyle=orthogonalEdgeStyle;rounded=0;orthogonalLoop=1;jettySize=auto;html=1;endArrow=none;startFill=0;" edge="1" parent="1" source="UmrRzRvC02uneNPQCRzM-3" target="UmrRzRvC02uneNPQCRzM-21">
          <mxGeometry relative="1" as="geometry" />
        </mxCell>
        <mxCell id="UmrRzRvC02uneNPQCRzM-3" value="Developer" style="rounded=1;arcSize=10;whiteSpace=wrap;html=1;align=center;" vertex="1" parent="1">
          <mxGeometry x="220" y="150" width="100" height="40" as="geometry" />
        </mxCell>
        <mxCell id="UmrRzRvC02uneNPQCRzM-7" value="" style="shape=flexArrow;endArrow=classic;html=1;rounded=0;width=18;endSize=4;endWidth=18;fillColor=#000000;" edge="1" parent="1" target="UmrRzRvC02uneNPQCRzM-1">
          <mxGeometry width="50" height="50" relative="1" as="geometry">
            <mxPoint x="425" y="120" as="sourcePoint" />
            <mxPoint x="425" y="50" as="targetPoint" />
            <Array as="points" />
          </mxGeometry>
        </mxCell>
        <mxCell id="UmrRzRvC02uneNPQCRzM-8" style="edgeStyle=orthogonalEdgeStyle;rounded=0;orthogonalLoop=1;jettySize=auto;html=1;exitX=0.5;exitY=1;exitDx=0;exitDy=0;entryX=0.5;entryY=0;entryDx=0;entryDy=0;endArrow=none;startFill=0;" edge="1" parent="1" source="UmrRzRvC02uneNPQCRzM-1" target="UmrRzRvC02uneNPQCRzM-3">
          <mxGeometry relative="1" as="geometry">
            <Array as="points">
              <mxPoint x="425" y="120" />
              <mxPoint x="270" y="120" />
            </Array>
          </mxGeometry>
        </mxCell>
        <mxCell id="UmrRzRvC02uneNPQCRzM-78" style="edgeStyle=orthogonalEdgeStyle;rounded=0;orthogonalLoop=1;jettySize=auto;html=1;exitX=0.25;exitY=0;exitDx=0;exitDy=0;endArrow=oval;endFill=1;" edge="1" parent="1" source="UmrRzRvC02uneNPQCRzM-1">
          <mxGeometry relative="1" as="geometry">
            <mxPoint x="400" y="20" as="targetPoint" />
          </mxGeometry>
        </mxCell>
        <mxCell id="UmrRzRvC02uneNPQCRzM-80" style="edgeStyle=orthogonalEdgeStyle;rounded=0;orthogonalLoop=1;jettySize=auto;html=1;exitX=0.75;exitY=0;exitDx=0;exitDy=0;endArrow=oval;endFill=0;" edge="1" parent="1" source="UmrRzRvC02uneNPQCRzM-1">
          <mxGeometry relative="1" as="geometry">
            <mxPoint x="450" y="20" as="targetPoint" />
          </mxGeometry>
        </mxCell>
        <mxCell id="UmrRzRvC02uneNPQCRzM-1" value="Utente" style="rounded=1;arcSize=10;whiteSpace=wrap;html=1;align=center;" vertex="1" parent="1">
          <mxGeometry x="375" y="40" width="100" height="40" as="geometry" />
        </mxCell>
        <mxCell id="UmrRzRvC02uneNPQCRzM-9" value="Creazione" style="rhombus;whiteSpace=wrap;html=1;rounded=1;arcSize=10;" vertex="1" parent="1">
          <mxGeometry x="602.5" y="250" width="95" height="50" as="geometry" />
        </mxCell>
        <mxCell id="UmrRzRvC02uneNPQCRzM-12" style="edgeStyle=orthogonalEdgeStyle;rounded=0;orthogonalLoop=1;jettySize=auto;html=1;exitX=0.5;exitY=0;exitDx=0;exitDy=0;entryX=0.5;entryY=1;entryDx=0;entryDy=0;endArrow=none;startFill=0;" edge="1" parent="1" source="UmrRzRvC02uneNPQCRzM-11" target="UmrRzRvC02uneNPQCRzM-9">
          <mxGeometry relative="1" as="geometry" />
        </mxCell>
        <mxCell id="UmrRzRvC02uneNPQCRzM-34" value="" style="edgeStyle=orthogonalEdgeStyle;rounded=0;orthogonalLoop=1;jettySize=auto;html=1;endArrow=none;startFill=0;" edge="1" parent="1" source="UmrRzRvC02uneNPQCRzM-11" target="UmrRzRvC02uneNPQCRzM-33">
          <mxGeometry relative="1" as="geometry" />
        </mxCell>
        <mxCell id="UmrRzRvC02uneNPQCRzM-11" value="Nodo" style="rounded=1;arcSize=10;whiteSpace=wrap;html=1;align=center;" vertex="1" parent="1">
          <mxGeometry x="600" y="360" width="100" height="40" as="geometry" />
        </mxCell>
        <mxCell id="UmrRzRvC02uneNPQCRzM-13" value="Creazione" style="rhombus;whiteSpace=wrap;html=1;rounded=1;arcSize=10;" vertex="1" parent="1">
          <mxGeometry x="222.5" y="250" width="95" height="50" as="geometry" />
        </mxCell>
        <mxCell id="UmrRzRvC02uneNPQCRzM-16" style="edgeStyle=orthogonalEdgeStyle;rounded=0;orthogonalLoop=1;jettySize=auto;html=1;exitX=0.5;exitY=0;exitDx=0;exitDy=0;entryX=0.5;entryY=1;entryDx=0;entryDy=0;endArrow=none;startFill=0;" edge="1" parent="1" source="UmrRzRvC02uneNPQCRzM-15" target="UmrRzRvC02uneNPQCRzM-13">
          <mxGeometry relative="1" as="geometry" />
        </mxCell>
        <mxCell id="UmrRzRvC02uneNPQCRzM-18" value="" style="edgeStyle=orthogonalEdgeStyle;rounded=0;orthogonalLoop=1;jettySize=auto;html=1;endArrow=none;startFill=0;" edge="1" parent="1" source="UmrRzRvC02uneNPQCRzM-15" target="UmrRzRvC02uneNPQCRzM-17">
          <mxGeometry relative="1" as="geometry" />
        </mxCell>
        <mxCell id="UmrRzRvC02uneNPQCRzM-43" value="" style="edgeStyle=orthogonalEdgeStyle;rounded=0;orthogonalLoop=1;jettySize=auto;html=1;endArrow=none;startFill=0;" edge="1" parent="1" source="UmrRzRvC02uneNPQCRzM-15" target="UmrRzRvC02uneNPQCRzM-42">
          <mxGeometry relative="1" as="geometry" />
        </mxCell>
        <mxCell id="UmrRzRvC02uneNPQCRzM-83" style="edgeStyle=orthogonalEdgeStyle;rounded=0;orthogonalLoop=1;jettySize=auto;html=1;exitX=0;exitY=0.25;exitDx=0;exitDy=0;endArrow=oval;endFill=1;" edge="1" parent="1" source="UmrRzRvC02uneNPQCRzM-15">
          <mxGeometry relative="1" as="geometry">
            <mxPoint x="190" y="370" as="targetPoint" />
          </mxGeometry>
        </mxCell>
        <mxCell id="UmrRzRvC02uneNPQCRzM-88" style="edgeStyle=orthogonalEdgeStyle;rounded=0;orthogonalLoop=1;jettySize=auto;html=1;exitX=0;exitY=0;exitDx=0;exitDy=0;endArrow=oval;endFill=0;" edge="1" parent="1" source="UmrRzRvC02uneNPQCRzM-15">
          <mxGeometry relative="1" as="geometry">
            <mxPoint x="220" y="330" as="targetPoint" />
          </mxGeometry>
        </mxCell>
        <mxCell id="UmrRzRvC02uneNPQCRzM-95" style="edgeStyle=orthogonalEdgeStyle;rounded=0;orthogonalLoop=1;jettySize=auto;html=1;exitX=0;exitY=0.5;exitDx=0;exitDy=0;endArrow=oval;endFill=1;" edge="1" parent="1" source="UmrRzRvC02uneNPQCRzM-15">
          <mxGeometry relative="1" as="geometry">
            <mxPoint x="190" y="380" as="targetPoint" />
          </mxGeometry>
        </mxCell>
        <mxCell id="UmrRzRvC02uneNPQCRzM-97" style="edgeStyle=orthogonalEdgeStyle;rounded=0;orthogonalLoop=1;jettySize=auto;html=1;exitX=0;exitY=1;exitDx=0;exitDy=0;endArrow=oval;endFill=0;" edge="1" parent="1" source="UmrRzRvC02uneNPQCRzM-15">
          <mxGeometry relative="1" as="geometry">
            <mxPoint x="180" y="410" as="targetPoint" />
            <Array as="points">
              <mxPoint x="205" y="400" />
              <mxPoint x="205" y="410" />
              <mxPoint x="190" y="410" />
            </Array>
          </mxGeometry>
        </mxCell>
        <mxCell id="UmrRzRvC02uneNPQCRzM-15" value="Servizio" style="rounded=1;arcSize=10;whiteSpace=wrap;html=1;align=center;" vertex="1" parent="1">
          <mxGeometry x="220" y="360" width="100" height="40" as="geometry" />
        </mxCell>
        <mxCell id="UmrRzRvC02uneNPQCRzM-17" value="Associazione" style="rhombus;whiteSpace=wrap;html=1;rounded=1;arcSize=10;" vertex="1" parent="1">
          <mxGeometry x="210" y="460" width="120" height="50" as="geometry" />
        </mxCell>
        <mxCell id="UmrRzRvC02uneNPQCRzM-20" style="edgeStyle=orthogonalEdgeStyle;rounded=0;orthogonalLoop=1;jettySize=auto;html=1;exitX=0.5;exitY=0;exitDx=0;exitDy=0;entryX=0.5;entryY=1;entryDx=0;entryDy=0;endArrow=none;startFill=0;" edge="1" parent="1" source="UmrRzRvC02uneNPQCRzM-19" target="UmrRzRvC02uneNPQCRzM-17">
          <mxGeometry relative="1" as="geometry" />
        </mxCell>
        <mxCell id="UmrRzRvC02uneNPQCRzM-24" style="edgeStyle=orthogonalEdgeStyle;rounded=0;orthogonalLoop=1;jettySize=auto;html=1;exitX=0;exitY=0.5;exitDx=0;exitDy=0;endArrow=none;startFill=0;" edge="1" parent="1" source="UmrRzRvC02uneNPQCRzM-19" target="UmrRzRvC02uneNPQCRzM-21">
          <mxGeometry relative="1" as="geometry" />
        </mxCell>
        <mxCell id="UmrRzRvC02uneNPQCRzM-19" value="Deployment" style="rounded=1;arcSize=10;whiteSpace=wrap;html=1;align=center;" vertex="1" parent="1">
          <mxGeometry x="220" y="570" width="100" height="40" as="geometry" />
        </mxCell>
        <mxCell id="UmrRzRvC02uneNPQCRzM-21" value="Creazione" style="rhombus;whiteSpace=wrap;html=1;rounded=1;arcSize=10;" vertex="1" parent="1">
          <mxGeometry x="-50" y="350" width="110" height="50" as="geometry" />
        </mxCell>
        <mxCell id="UmrRzRvC02uneNPQCRzM-25" value="(1,1)" style="text;html=1;align=center;verticalAlign=middle;resizable=0;points=[];autosize=1;strokeColor=none;fillColor=none;" vertex="1" parent="1">
          <mxGeometry x="170" y="590" width="50" height="30" as="geometry" />
        </mxCell>
        <mxCell id="UmrRzRvC02uneNPQCRzM-26" value="(0,N)" style="text;html=1;align=center;verticalAlign=middle;resizable=0;points=[];autosize=1;strokeColor=none;fillColor=none;" vertex="1" parent="1">
          <mxGeometry x="170" y="138" width="50" height="30" as="geometry" />
        </mxCell>
        <mxCell id="UmrRzRvC02uneNPQCRzM-27" value="(1,N)" style="text;html=1;align=center;verticalAlign=middle;resizable=0;points=[];autosize=1;strokeColor=none;fillColor=none;" vertex="1" parent="1">
          <mxGeometry x="220" y="540" width="50" height="30" as="geometry" />
        </mxCell>
        <mxCell id="UmrRzRvC02uneNPQCRzM-28" value="(0,N)" style="text;html=1;align=center;verticalAlign=middle;resizable=0;points=[];autosize=1;strokeColor=none;fillColor=none;" vertex="1" parent="1">
          <mxGeometry x="220" y="400" width="50" height="30" as="geometry" />
        </mxCell>
        <mxCell id="UmrRzRvC02uneNPQCRzM-29" value="(0,N)" style="text;html=1;align=center;verticalAlign=middle;resizable=0;points=[];autosize=1;strokeColor=none;fillColor=none;" vertex="1" parent="1">
          <mxGeometry x="220" y="190" width="50" height="30" as="geometry" />
        </mxCell>
        <mxCell id="UmrRzRvC02uneNPQCRzM-30" value="(1,1)" style="text;html=1;align=center;verticalAlign=middle;resizable=0;points=[];autosize=1;strokeColor=none;fillColor=none;" vertex="1" parent="1">
          <mxGeometry x="270" y="330" width="50" height="30" as="geometry" />
        </mxCell>
        <mxCell id="UmrRzRvC02uneNPQCRzM-31" value="(0,N)" style="text;html=1;align=center;verticalAlign=middle;resizable=0;points=[];autosize=1;strokeColor=none;fillColor=none;" vertex="1" parent="1">
          <mxGeometry x="600" y="190" width="50" height="30" as="geometry" />
        </mxCell>
        <mxCell id="UmrRzRvC02uneNPQCRzM-32" value="(1,1)" style="text;html=1;align=center;verticalAlign=middle;resizable=0;points=[];autosize=1;strokeColor=none;fillColor=none;" vertex="1" parent="1">
          <mxGeometry x="600" y="330" width="50" height="30" as="geometry" />
        </mxCell>
        <mxCell id="UmrRzRvC02uneNPQCRzM-33" value="Ospitazione" style="rhombus;whiteSpace=wrap;html=1;rounded=1;arcSize=10;" vertex="1" parent="1">
          <mxGeometry x="600" y="457.5" width="100" height="55" as="geometry" />
        </mxCell>
        <mxCell id="UmrRzRvC02uneNPQCRzM-39" style="edgeStyle=orthogonalEdgeStyle;rounded=0;orthogonalLoop=1;jettySize=auto;html=1;exitX=0.5;exitY=0;exitDx=0;exitDy=0;entryX=0.5;entryY=1;entryDx=0;entryDy=0;endArrow=none;startFill=0;" edge="1" parent="1" source="UmrRzRvC02uneNPQCRzM-37" target="UmrRzRvC02uneNPQCRzM-33">
          <mxGeometry relative="1" as="geometry" />
        </mxCell>
        <mxCell id="UmrRzRvC02uneNPQCRzM-44" style="edgeStyle=orthogonalEdgeStyle;rounded=0;orthogonalLoop=1;jettySize=auto;html=1;exitX=0;exitY=0.5;exitDx=0;exitDy=0;entryX=0.5;entryY=1;entryDx=0;entryDy=0;endArrow=none;startFill=0;" edge="1" parent="1" source="UmrRzRvC02uneNPQCRzM-37" target="UmrRzRvC02uneNPQCRzM-42">
          <mxGeometry relative="1" as="geometry" />
        </mxCell>
        <mxCell id="UmrRzRvC02uneNPQCRzM-49" value="" style="edgeStyle=orthogonalEdgeStyle;rounded=0;orthogonalLoop=1;jettySize=auto;html=1;endArrow=none;startFill=0;" edge="1" parent="1" source="UmrRzRvC02uneNPQCRzM-37" target="UmrRzRvC02uneNPQCRzM-48">
          <mxGeometry relative="1" as="geometry" />
        </mxCell>
        <mxCell id="UmrRzRvC02uneNPQCRzM-62" style="edgeStyle=orthogonalEdgeStyle;rounded=0;orthogonalLoop=1;jettySize=auto;html=1;exitX=1;exitY=0.5;exitDx=0;exitDy=0;entryX=0.5;entryY=0;entryDx=0;entryDy=0;endArrow=none;startFill=0;" edge="1" parent="1" source="UmrRzRvC02uneNPQCRzM-37" target="UmrRzRvC02uneNPQCRzM-56">
          <mxGeometry relative="1" as="geometry" />
        </mxCell>
        <mxCell id="UmrRzRvC02uneNPQCRzM-37" value="Container" style="rounded=1;arcSize=10;whiteSpace=wrap;html=1;align=center;" vertex="1" parent="1">
          <mxGeometry x="600" y="570" width="100" height="40" as="geometry" />
        </mxCell>
        <mxCell id="UmrRzRvC02uneNPQCRzM-40" value="(1,1)" style="text;html=1;align=center;verticalAlign=middle;resizable=0;points=[];autosize=1;strokeColor=none;fillColor=none;" vertex="1" parent="1">
          <mxGeometry x="650" y="540" width="50" height="30" as="geometry" />
        </mxCell>
        <mxCell id="UmrRzRvC02uneNPQCRzM-41" value="(0,N)" style="text;html=1;align=center;verticalAlign=middle;resizable=0;points=[];autosize=1;strokeColor=none;fillColor=none;" vertex="1" parent="1">
          <mxGeometry x="650" y="400" width="50" height="30" as="geometry" />
        </mxCell>
        <mxCell id="UmrRzRvC02uneNPQCRzM-42" value="Part-of" style="rhombus;whiteSpace=wrap;html=1;rounded=1;arcSize=10;" vertex="1" parent="1">
          <mxGeometry x="400" y="460" width="140" height="50" as="geometry" />
        </mxCell>
        <mxCell id="UmrRzRvC02uneNPQCRzM-45" value="(1,N)" style="text;html=1;align=center;verticalAlign=middle;resizable=0;points=[];autosize=1;strokeColor=none;fillColor=none;" vertex="1" parent="1">
          <mxGeometry x="320" y="380" width="50" height="30" as="geometry" />
        </mxCell>
        <mxCell id="UmrRzRvC02uneNPQCRzM-46" value="(1,1)" style="text;html=1;align=center;verticalAlign=middle;resizable=0;points=[];autosize=1;strokeColor=none;fillColor=none;" vertex="1" parent="1">
          <mxGeometry x="550" y="560" width="50" height="30" as="geometry" />
        </mxCell>
        <mxCell id="UmrRzRvC02uneNPQCRzM-48" value="Contenuto" style="rhombus;whiteSpace=wrap;html=1;rounded=1;arcSize=10;" vertex="1" parent="1">
          <mxGeometry x="600" y="670" width="100" height="50" as="geometry" />
        </mxCell>
        <mxCell id="UmrRzRvC02uneNPQCRzM-51" style="edgeStyle=orthogonalEdgeStyle;rounded=0;orthogonalLoop=1;jettySize=auto;html=1;exitX=0.5;exitY=0;exitDx=0;exitDy=0;entryX=0.5;entryY=1;entryDx=0;entryDy=0;endArrow=none;startFill=0;" edge="1" parent="1" source="UmrRzRvC02uneNPQCRzM-50" target="UmrRzRvC02uneNPQCRzM-48">
          <mxGeometry relative="1" as="geometry" />
        </mxCell>
        <mxCell id="UmrRzRvC02uneNPQCRzM-50" value="Volume" style="rounded=1;arcSize=10;whiteSpace=wrap;html=1;align=center;" vertex="1" parent="1">
          <mxGeometry x="600" y="780" width="100" height="40" as="geometry" />
        </mxCell>
        <mxCell id="UmrRzRvC02uneNPQCRzM-52" value="(1,N)" style="text;html=1;align=center;verticalAlign=middle;resizable=0;points=[];autosize=1;strokeColor=none;fillColor=none;" vertex="1" parent="1">
          <mxGeometry x="650" y="750" width="50" height="30" as="geometry" />
        </mxCell>
        <mxCell id="UmrRzRvC02uneNPQCRzM-53" value="(0,N)" style="text;html=1;align=center;verticalAlign=middle;resizable=0;points=[];autosize=1;strokeColor=none;fillColor=none;" vertex="1" parent="1">
          <mxGeometry x="600" y="610" width="50" height="30" as="geometry" />
        </mxCell>
        <mxCell id="UmrRzRvC02uneNPQCRzM-56" value="Appartanenza" style="rhombus;whiteSpace=wrap;html=1;rounded=1;arcSize=10;" vertex="1" parent="1">
          <mxGeometry x="810" y="670" width="130" height="50" as="geometry" />
        </mxCell>
        <mxCell id="UmrRzRvC02uneNPQCRzM-59" style="edgeStyle=orthogonalEdgeStyle;rounded=0;orthogonalLoop=1;jettySize=auto;html=1;exitX=0.5;exitY=0;exitDx=0;exitDy=0;entryX=0.5;entryY=1;entryDx=0;entryDy=0;endArrow=none;startFill=0;" edge="1" parent="1" source="UmrRzRvC02uneNPQCRzM-58" target="UmrRzRvC02uneNPQCRzM-56">
          <mxGeometry relative="1" as="geometry" />
        </mxCell>
        <mxCell id="UmrRzRvC02uneNPQCRzM-66" style="edgeStyle=orthogonalEdgeStyle;rounded=0;orthogonalLoop=1;jettySize=auto;html=1;exitX=1;exitY=0.5;exitDx=0;exitDy=0;entryX=0.5;entryY=1;entryDx=0;entryDy=0;endArrow=none;startFill=0;" edge="1" parent="1" source="UmrRzRvC02uneNPQCRzM-58" target="UmrRzRvC02uneNPQCRzM-63">
          <mxGeometry relative="1" as="geometry" />
        </mxCell>
        <mxCell id="UmrRzRvC02uneNPQCRzM-58" value="Rete&lt;div&gt;Virtuale&lt;/div&gt;" style="rounded=1;arcSize=10;whiteSpace=wrap;html=1;align=center;" vertex="1" parent="1">
          <mxGeometry x="825" y="780" width="100" height="40" as="geometry" />
        </mxCell>
        <mxCell id="UmrRzRvC02uneNPQCRzM-60" value="(1,N)" style="text;html=1;align=center;verticalAlign=middle;resizable=0;points=[];autosize=1;strokeColor=none;fillColor=none;" vertex="1" parent="1">
          <mxGeometry x="875" y="750" width="50" height="30" as="geometry" />
        </mxCell>
        <mxCell id="UmrRzRvC02uneNPQCRzM-61" value="(0,N)" style="text;html=1;align=center;verticalAlign=middle;resizable=0;points=[];autosize=1;strokeColor=none;fillColor=none;" vertex="1" parent="1">
          <mxGeometry x="700" y="590" width="50" height="30" as="geometry" />
        </mxCell>
        <mxCell id="UmrRzRvC02uneNPQCRzM-63" value="Creazione" style="rhombus;whiteSpace=wrap;html=1;rounded=1;arcSize=10;" vertex="1" parent="1">
          <mxGeometry x="1000" y="670" width="120" height="50" as="geometry" />
        </mxCell>
        <mxCell id="UmrRzRvC02uneNPQCRzM-67" value="(1,1)" style="text;html=1;align=center;verticalAlign=middle;resizable=0;points=[];autosize=1;strokeColor=none;fillColor=none;" vertex="1" parent="1">
          <mxGeometry x="925" y="800" width="50" height="30" as="geometry" />
        </mxCell>
        <mxCell id="UmrRzRvC02uneNPQCRzM-68" value="(0,N)" style="text;html=1;align=center;verticalAlign=middle;resizable=0;points=[];autosize=1;strokeColor=none;fillColor=none;" vertex="1" parent="1">
          <mxGeometry x="700" y="138" width="50" height="30" as="geometry" />
        </mxCell>
        <mxCell id="UmrRzRvC02uneNPQCRzM-70" value="" style="shape=flexArrow;endArrow=classic;html=1;rounded=0;width=18;endSize=4;endWidth=18;fillColor=#000000;" edge="1" parent="1">
          <mxGeometry width="50" height="50" relative="1" as="geometry">
            <mxPoint x="750" y="379.5" as="sourcePoint" />
            <mxPoint x="700" y="379.5" as="targetPoint" />
            <Array as="points" />
          </mxGeometry>
        </mxCell>
        <mxCell id="UmrRzRvC02uneNPQCRzM-76" style="edgeStyle=orthogonalEdgeStyle;rounded=0;orthogonalLoop=1;jettySize=auto;html=1;exitX=0;exitY=0.5;exitDx=0;exitDy=0;entryX=1;entryY=0.5;entryDx=0;entryDy=0;" edge="1" parent="1" source="UmrRzRvC02uneNPQCRzM-72" target="UmrRzRvC02uneNPQCRzM-11">
          <mxGeometry relative="1" as="geometry">
            <Array as="points">
              <mxPoint x="750" y="420" />
              <mxPoint x="750" y="380" />
            </Array>
          </mxGeometry>
        </mxCell>
        <mxCell id="UmrRzRvC02uneNPQCRzM-72" value="Manager" style="rounded=1;arcSize=10;whiteSpace=wrap;html=1;align=center;" vertex="1" parent="1">
          <mxGeometry x="775" y="400" width="100" height="40" as="geometry" />
        </mxCell>
        <mxCell id="UmrRzRvC02uneNPQCRzM-74" style="edgeStyle=orthogonalEdgeStyle;rounded=0;orthogonalLoop=1;jettySize=auto;html=1;exitX=0;exitY=0.5;exitDx=0;exitDy=0;entryX=1;entryY=0.5;entryDx=0;entryDy=0;" edge="1" parent="1" source="UmrRzRvC02uneNPQCRzM-73" target="UmrRzRvC02uneNPQCRzM-11">
          <mxGeometry relative="1" as="geometry">
            <Array as="points">
              <mxPoint x="750" y="340" />
              <mxPoint x="750" y="380" />
            </Array>
          </mxGeometry>
        </mxCell>
        <mxCell id="UmrRzRvC02uneNPQCRzM-73" value="Worker" style="rounded=1;arcSize=10;whiteSpace=wrap;html=1;align=center;" vertex="1" parent="1">
          <mxGeometry x="775" y="320" width="100" height="40" as="geometry" />
        </mxCell>
        <mxCell id="UmrRzRvC02uneNPQCRzM-79" value="username" style="text;html=1;align=center;verticalAlign=middle;resizable=0;points=[];autosize=1;strokeColor=none;fillColor=none;fontSize=10;" vertex="1" parent="1">
          <mxGeometry x="360" y="-10" width="70" height="30" as="geometry" />
        </mxCell>
        <mxCell id="UmrRzRvC02uneNPQCRzM-81" value="&lt;font style=&quot;font-size: 10px;&quot;&gt;password&lt;/font&gt;" style="text;html=1;align=center;verticalAlign=middle;resizable=0;points=[];autosize=1;strokeColor=none;fillColor=none;" vertex="1" parent="1">
          <mxGeometry x="420" y="-10" width="70" height="30" as="geometry" />
        </mxCell>
        <mxCell id="UmrRzRvC02uneNPQCRzM-85" value="versione" style="text;html=1;align=center;verticalAlign=middle;resizable=0;points=[];autosize=1;strokeColor=none;fillColor=none;fontSize=10;" vertex="1" parent="1">
          <mxGeometry x="130" y="350" width="60" height="30" as="geometry" />
        </mxCell>
        <mxCell id="UmrRzRvC02uneNPQCRzM-87" value="" style="endArrow=none;html=1;rounded=0;" edge="1" parent="1">
          <mxGeometry width="50" height="50" relative="1" as="geometry">
            <mxPoint x="210" y="390" as="sourcePoint" />
            <mxPoint x="210" y="360" as="targetPoint" />
          </mxGeometry>
        </mxCell>
        <mxCell id="UmrRzRvC02uneNPQCRzM-89" value="numRepliche" style="text;html=1;align=center;verticalAlign=middle;resizable=0;points=[];autosize=1;strokeColor=none;fillColor=none;fontSize=10;" vertex="1" parent="1">
          <mxGeometry x="180" y="300" width="80" height="30" as="geometry" />
        </mxCell>
        <mxCell id="UmrRzRvC02uneNPQCRzM-96" value="nome" style="text;html=1;align=center;verticalAlign=middle;resizable=0;points=[];autosize=1;strokeColor=none;fillColor=none;fontSize=10;" vertex="1" parent="1">
          <mxGeometry x="135" y="365" width="50" height="30" as="geometry" />
        </mxCell>
        <mxCell id="UmrRzRvC02uneNPQCRzM-99" value="nRepliche" style="text;html=1;align=center;verticalAlign=middle;resizable=0;points=[];autosize=1;strokeColor=none;fillColor=none;fontSize=10;" vertex="1" parent="1">
          <mxGeometry x="115" y="395" width="70" height="30" as="geometry" />
        </mxCell>
      </root>
    </mxGraphModel>
  </diagram>
</mxfile>
